<svg width="164" height="164" xmlns="http://www.w3.org/2000/svg" xmlns:xlink="http://www.w3.org/1999/xlink" viewBox="0 0 65 65">
  <defs>
    <style>
      .a{fill:url(#a);}
      .b{fill:url(#b);}
      .c{fill:url(#c);}
      .d{fill:url(#d);}
      .e{fill:url(#e);}
      .f{fill:url(#f);}
      .g{fill:url(#g);}
      .h{fill:#1a1a1a;}
    </style>
    <radialGradient id="a" cx="947.48" cy="713.96" r="30.67" gradientTransform="matrix(0.31, 0, 0, 0.31, -263.29, -193.77)" gradientUnits="userSpaceOnUse">
      <stop offset="0" stop-color="#4495d1"/>
      <stop offset="1" stop-color="#15256d"/>
    </radialGradient>
    <linearGradient id="b" x1="699.56" y1="-383.36" x2="727.78" y2="-395.38" gradientTransform="translate(-742.47 -221.41) rotate(45)" xlink:href="#a"/>
    <linearGradient id="c" x1="634.9" y1="1130.19" x2="663.12" y2="1118.18" gradientTransform="translate(-1245.1 375.83) rotate(-75)" xlink:href="#a"/>
    <linearGradient id="d" x1="-755.79" y1="250.84" x2="-727.57" y2="238.82" gradientTransform="translate(-602.14 477.27) rotate(165)" xlink:href="#a"/>
    <linearGradient id="e" x1="11.88" y1="23.95" x2="24.67" y2="4.32" gradientTransform="matrix(1, 0, 0, 1, 0, 0)" xlink:href="#a"/>
    <linearGradient id="f" x1="36.08" y1="51.93" x2="13.14" y2="54.27" gradientTransform="matrix(1, 0, 0, 1, 0, 0)" xlink:href="#a"/>
    <linearGradient id="g" x1="50.85" y1="18.75" x2="55.52" y2="42.36" gradientTransform="matrix(1, 0, 0, 1, 0, 0)" xlink:href="#a"/>
  </defs>
  <path class="a" d="M37.56,36.88a6.77,6.77,0,1,1-.48-9.57A6.76,6.76,0,0,1,37.56,36.88Z"/>
  <path class="b" d="M34.31,9.14c.56.56,1.09,1.13,1.56,1.7a26.62,26.62,0,0,1,4,6.46,21.33,21.33,0,0,0,4.87.34l.29,0,.26,0A18.56,18.56,0,0,0,57,12l.41-.42c-.62-.74-1.25-1.46-1.94-2.15a32.38,32.38,0,0,0-42.24-3C23.13,1.61,30,4.93,34.31,9.14Z"/>
  <path class="c" d="M11.39,42c.2-.77.43-1.51.68-2.2a26.85,26.85,0,0,1,3.6-6.69,21,21,0,0,0-2.14-4.38l-.16-.25-.15-.21A18.54,18.54,0,0,0,2.57,21L2,20.83c-.33.9-.63,1.81-.89,2.75A32.38,32.38,0,0,0,19.6,61.67C10.45,55.47,9.88,47.83,11.39,42Z"/>
  <path class="d" d="M51.4,45.47c-.77.21-1.53.38-2.26.51a26.74,26.74,0,0,1-7.59.22,21,21,0,0,0-2.72,4c0,.09-.09.17-.13.26a2.56,2.56,0,0,0-.11.24,18.49,18.49,0,0,0-1,12.88c0,.19.11.38.17.57.94-.17,1.89-.35,2.83-.6A32.4,32.4,0,0,0,64.31,28.53C63.51,39.56,57.18,43.86,51.4,45.47Z"/>
  <path class="e" d="M13.18,6.43A30.63,30.63,0,0,0,2.49,19.66a19.33,19.33,0,0,1,14.41,13c.89-.57,3.63-2.74,5.47-8.7,2.23-7.21,6.45-12.53,11.94-14.85C34.31,9.14,27.36-.75,13.18,6.43Z"/>
  <path class="f" d="M35.44,58.34a19.29,19.29,0,0,1,5.07-13.05l.05-.07c-.67-.71-3-2.45-9-1.09C24.25,45.8,16.13,45.61,11.39,42c0,0-5.1,11,8.21,19.65a30.58,30.58,0,0,0,16.78,2.65A18.45,18.45,0,0,1,35.44,58.34Z"/>
  <path class="g" d="M58.2,12.66a19.12,19.12,0,0,1-14.32,6.49,21,21,0,0,1-4.25-.45h-.07c-.28,1-.5,3.85,3.55,8.21,5.13,5.54,9,12.66,8.29,18.57,0,0,12-1.07,12.91-16.94A30.62,30.62,0,0,0,58.2,12.66Z"/>
</svg>
